<svg width="100" height="40" viewBox="0 0 100 40" fill="none" xmlns="http://www.w3.org/2000/svg">
<g opacity="0.9">
<path fill-rule="evenodd" clip-rule="evenodd" d="M47.1482 24.7071C47.4897 23.1922 47.6698 21.6168 47.6698 19.9997C47.6698 18.3779 47.4886 16.7981 47.1453 15.2791C45.1506 15.9164 43.9206 17.6883 43.9206 20.0034C43.9206 22.3024 45.1519 24.0713 47.1482 24.7071ZM48.6153 27.8827L48.6629 27.8839C48.731 27.8854 48.7995 27.8862 48.8682 27.8862C51.6798 27.8862 54.1427 26.4786 55.4287 24.3129L52.835 22.8187C52.177 24.0272 50.8622 24.8189 49.3079 24.945C49.7026 23.361 49.9119 21.7047 49.9119 19.9998C49.9119 18.2896 49.7012 16.6283 49.3042 15.0399C50.857 15.1652 52.1565 15.9589 52.835 17.1881L55.4287 15.6938C54.1209 13.5282 51.658 12.1205 48.8682 12.1205C48.6902 12.1205 48.5142 12.1257 48.3401 12.1357C45.8133 6.09268 40.462 1.50659 33.921 0C39.6356 2.22055 44.1663 6.78412 46.3134 12.5001C43.0746 13.5108 40.9347 16.4354 40.9347 20.0034C40.9347 23.5533 43.0738 26.488 46.3116 27.5041C44.1635 33.2184 39.6331 37.7804 33.9192 40C40.4586 38.4944 45.809 33.911 48.3373 27.8708C48.4294 27.8762 48.5221 27.8802 48.6153 27.8827ZM80.6196 12.4237V21.6709L74.081 12.4237H71.806V12.422L69.8992 12.4193L71.7925 13.9183V27.583H74.8002V18.3142L81.3389 27.583H83.6274V12.4237H80.6196ZM12.765 15.2824V12.4237H1.9068V12.422L0 12.4193L1.66919 13.7409V27.583H4.67695V21.7359H10.6054V18.8773H4.67695V15.2824H12.765ZM22.1195 27.583H25.3888L20.0271 12.4237H16.3001L16.2925 12.4452V12.422L14.3857 12.4193L15.8838 13.6054L10.9602 27.583H14.2077L15.1231 24.8543H21.2041L22.1195 27.583ZM16.0821 22.0607L18.1745 15.867L20.2668 22.0607L20.7983 23.4562L19.1176 22.0607H16.0821ZM40.4849 27.583H36.7838L33.7106 22.3206H29.878V27.583H26.8702V13.9145L24.9818 12.4193L26.8886 12.422V12.4237H34.5171C37.3287 12.4237 39.5954 14.676 39.5954 17.4479C39.5954 19.3537 38.3967 21.0645 36.653 21.8658L40.4849 27.583ZM34.5171 15.2174H29.878V19.7002H34.5171C35.6504 19.7002 36.5876 18.704 36.5876 17.4479C36.5876 16.1919 35.6504 15.2174 34.5171 15.2174ZM70.2741 27.583H67.0048L66.0894 24.8543H60.0085L59.0931 27.583H55.8455L60.7751 13.5887L59.2981 12.4193L61.2049 12.422V12.4237H64.9125L70.2741 27.583ZM63.0599 15.867L60.9675 22.0607H64.003L65.6837 23.4562L65.1521 22.0607L63.0599 15.867ZM96.2656 27.583H99.5349L94.1732 12.4237H90.4717V12.422L88.5649 12.4193L90.0371 13.585L85.1063 27.583H88.3538L89.2692 24.8543H95.3502L96.2656 27.583ZM90.2282 22.0607L92.3206 15.867L94.4129 22.0607L94.9444 23.4562L93.2637 22.0607H90.2282Z" fill="#FAFAFA"/>
</g>
</svg>
