<svg width="205" height="38" viewBox="0 0 205 38" fill="none" xmlns="http://www.w3.org/2000/svg">
<g clip-path="url(#clip0_803_2022)">
<path d="M49.252 27.974V6.61426L57.692 6.61426C57.8997 6.61426 58.1459 6.62316 58.4337 6.63799C58.7214 6.65282 58.9973 6.68546 59.2643 6.73589C60.4213 6.91389 61.3914 7.31141 62.1805 7.92847C62.9667 8.54553 63.557 9.32279 63.9516 10.2573C64.3461 11.1918 64.5449 12.2212 64.5449 13.3485C64.5449 15.0098 64.1147 16.4427 63.2544 17.6501C62.3941 18.8575 61.1333 19.614 59.472 19.9196L58.4633 20.0827H51.8922V27.974H49.252ZM51.8922 17.5759H57.603C57.7899 17.5759 58.0065 17.567 58.2468 17.5463C58.49 17.5255 58.7185 17.4929 58.938 17.4424C59.6203 17.2852 60.1751 16.9945 60.5993 16.5762C61.0235 16.1549 61.338 15.6625 61.5397 15.0929C61.7414 14.5233 61.8453 13.9418 61.8453 13.3485C61.8453 12.7552 61.7444 12.1737 61.5397 11.6041C61.338 11.0345 61.0235 10.5421 60.5993 10.1208C60.1751 9.69955 59.6203 9.41179 58.938 9.25455C58.7214 9.20412 58.49 9.17149 58.2468 9.15072C58.0035 9.12996 57.7899 9.12106 57.603 9.12106H51.8922V17.5759ZM61.9639 27.974L57.7513 19.2817L60.362 18.4808L64.9899 27.974H61.9639Z" fill="#222222"/>
<path d="M67.3311 9.1209V6.3916H69.9713V9.1209H67.3311ZM67.3311 27.9738V11.954H69.9713V27.9738H67.3311Z" fill="#222222"/>
<path d="M79.5357 28.4039C77.6282 28.4039 76.0618 27.9856 74.8395 27.149C73.6173 26.3125 72.8697 25.1436 72.5908 23.6425L75.2904 23.2123C75.507 24.0816 76.0084 24.7728 76.7886 25.2801C77.5688 25.7903 78.5389 26.0455 79.6959 26.0455C80.7846 26.0455 81.642 25.817 82.268 25.3631C82.8969 24.9092 83.2084 24.2892 83.2084 23.509C83.2084 23.064 83.1045 22.6991 82.8969 22.4202C82.6892 22.1384 82.262 21.8744 81.6123 21.6252C80.9656 21.379 79.9896 21.0764 78.6813 20.7204C77.2662 20.3436 76.1537 19.955 75.3438 19.5575C74.534 19.1599 73.9555 18.6912 73.6084 18.1572C73.2613 17.6232 73.0892 16.9706 73.0892 16.1992C73.0892 15.2588 73.3473 14.44 73.8605 13.7369C74.3738 13.0338 75.0947 12.488 76.0202 12.0964C76.9458 11.7048 78.0197 11.512 79.2479 11.512C80.4761 11.512 81.553 11.7048 82.5112 12.0905C83.4694 12.4761 84.2437 13.022 84.8341 13.728C85.4215 14.4341 85.7715 15.2588 85.8783 16.1992L83.1787 16.6887C83.0511 15.8373 82.6358 15.1639 81.9327 14.6625C81.2296 14.1641 80.3367 13.8971 79.2479 13.8704C78.2096 13.8408 77.3671 14.0277 76.7174 14.4341C76.0707 14.8405 75.7473 15.3834 75.7473 16.0657C75.7473 16.4603 75.8689 16.7955 76.1092 17.0685C76.3525 17.3414 76.8005 17.5995 77.4591 17.8457C78.1176 18.0919 79.0729 18.3738 80.3278 18.6912C81.7429 19.0472 82.8583 19.4358 83.6741 19.8541C84.49 20.2754 85.0714 20.7678 85.4185 21.3374C85.7656 21.907 85.9377 22.6071 85.9377 23.4378C85.9377 24.9804 85.3681 26.1938 84.2319 27.0778C83.0956 27.9619 81.5263 28.4069 79.5298 28.4069L79.5357 28.4039Z" fill="#222222"/>
<path d="M95.4872 28.4188C93.9149 28.4188 92.5413 28.0717 91.3695 27.3716C90.1977 26.6745 89.284 25.7014 88.6313 24.4495C87.9787 23.1976 87.6523 21.738 87.6523 20.0648C87.6523 18.3916 87.9727 16.7986 88.6165 15.5199C89.2603 14.2384 90.1562 13.2505 91.3102 12.5533C92.4612 11.8562 93.814 11.5061 95.3656 11.5061C96.9171 11.5061 98.35 11.8769 99.4832 12.6186C100.616 13.3602 101.465 14.4193 102.035 15.7929C102.604 17.1664 102.847 18.804 102.77 20.7026H100.1V19.7533C100.071 17.7864 99.6701 16.315 98.8988 15.339C98.1275 14.3659 96.9794 13.8794 95.4575 13.8794C93.8259 13.8794 92.5858 14.4045 91.7344 15.4517C90.883 16.4989 90.4588 18.003 90.4588 19.961C90.4588 21.919 90.883 23.3133 91.7344 24.3516C92.5858 25.3899 93.7962 25.9091 95.3685 25.9091C96.4276 25.9091 97.3473 25.6658 98.1275 25.1822C98.9077 24.6987 99.5218 24.0015 99.9668 23.0908L102.503 23.9659C101.88 25.381 100.943 26.4757 99.6939 27.253C98.442 28.0302 97.0417 28.4159 95.4902 28.4159L95.4872 28.4188ZM89.5688 20.7056V18.5845H101.406V20.7056H89.5688Z" fill="#222222"/>
<path d="M111.993 27.974V6.61426L125.491 6.61426V9.12106H114.633V15.8108H123.711V18.3176H114.633V25.4672H125.491V27.974H111.993Z" fill="#222222"/>
<path d="M127.723 27.974V11.9542H130.096V16.241H130.393V27.974H127.723ZM139.144 27.974V19.9492C139.144 19.1987 139.076 18.4719 138.936 17.7688C138.797 17.0657 138.566 16.4338 138.239 15.8701C137.913 15.3065 137.471 14.8615 136.91 14.5351C136.353 14.2088 135.647 14.0457 134.798 14.0457C134.137 14.0457 133.534 14.1584 132.994 14.3868C132.454 14.6152 131.992 14.9534 131.609 15.4014C131.223 15.8523 130.924 16.419 130.713 17.1072C130.499 17.7955 130.393 18.6024 130.393 19.5309L128.657 18.997C128.657 17.4543 128.936 16.1253 129.497 15.0068C130.054 13.8884 130.841 13.0311 131.855 12.4348C132.87 11.8355 134.062 11.5359 135.439 11.5359C136.477 11.5359 137.361 11.6991 138.094 12.0254C138.827 12.3517 139.435 12.7878 139.918 13.3307C140.402 13.8736 140.785 14.4788 141.061 15.1403C141.336 15.8019 141.532 16.4813 141.645 17.1725C141.758 17.8637 141.817 18.5134 141.817 19.1156V27.971H139.147L139.144 27.974Z" fill="#222222"/>
<path d="M151.405 28.4188C149.913 28.4188 148.631 28.048 147.563 27.3063C146.495 26.5647 145.67 25.553 145.092 24.2744C144.513 22.9958 144.226 21.5511 144.226 19.9491C144.226 18.3471 144.513 16.9083 145.092 15.6326C145.67 14.357 146.495 13.3513 147.563 12.6126C148.631 11.8769 149.907 11.509 151.39 11.509C152.873 11.509 154.173 11.8769 155.202 12.6126C156.232 13.3483 157.009 14.354 157.54 15.6237C158.071 16.8935 158.332 18.3352 158.332 19.9491C158.332 21.5629 158.068 22.9899 157.54 24.2655C157.012 25.5412 156.232 26.5528 155.202 27.2974C154.173 28.045 152.909 28.4188 151.405 28.4188ZM151.598 35.5387C150.758 35.5387 149.936 35.4111 149.135 35.153C148.334 34.8949 147.602 34.5093 146.934 33.9901C146.267 33.471 145.712 32.8153 145.267 32.0262L147.685 30.7506C148.079 31.5308 148.64 32.1004 149.367 32.4564C150.094 32.8124 150.841 32.9904 151.615 32.9904C152.633 32.9904 153.476 32.8064 154.143 32.4326C154.811 32.0588 155.306 31.51 155.635 30.7773C155.962 30.0445 156.119 29.1367 156.11 28.048V23.6722H156.421V11.954H158.765V28.0776C158.765 28.5226 158.753 28.9469 158.729 29.3474C158.706 29.7478 158.652 30.1454 158.572 30.5429C158.365 31.6791 157.955 32.6166 157.341 33.3523C156.727 34.088 155.938 34.6368 154.968 34.9988C153.998 35.3607 152.876 35.5417 151.601 35.5417L151.598 35.5387ZM151.731 26.001C152.808 26.001 153.695 25.7399 154.386 25.2237C155.077 24.7046 155.591 23.9867 155.92 23.0729C156.252 22.1592 156.415 21.1179 156.415 19.952C156.415 18.7862 156.246 17.733 155.911 16.8223C155.576 15.9115 155.069 15.2025 154.392 14.6922C153.716 14.182 152.853 13.9298 151.802 13.9298C150.752 13.9298 149.818 14.1968 149.109 14.7308C148.403 15.2648 147.878 15.9857 147.536 16.8964C147.195 17.8072 147.026 18.8247 147.026 19.952C147.026 21.0794 147.198 22.1147 147.545 23.0314C147.892 23.9451 148.411 24.669 149.109 25.2059C149.806 25.7399 150.678 26.0069 151.728 26.0069L151.731 26.001Z" fill="#222222"/>
<path d="M162.319 27.9739V6.16919H164.96V27.9739H162.319Z" fill="#222222"/>
<path d="M168.655 9.1209V6.3916H171.296V9.1209H168.655ZM168.655 27.9738V11.954H171.296V27.9738H168.655Z" fill="#222222"/>
<path d="M180.864 28.4039C178.956 28.4039 177.39 27.9856 176.168 27.149C174.945 26.3125 174.198 25.1436 173.919 23.6425L176.619 23.2123C176.835 24.0816 177.337 24.7728 178.117 25.2801C178.897 25.7903 179.867 26.0455 181.024 26.0455C182.113 26.0455 182.97 25.817 183.596 25.3631C184.225 24.9092 184.536 24.2892 184.536 23.509C184.536 23.064 184.433 22.6991 184.225 22.4202C184.017 22.1384 183.59 21.8744 182.94 21.6252C182.294 21.379 181.318 21.0764 180.009 20.7204C178.594 20.3436 177.482 19.955 176.672 19.5575C175.862 19.1599 175.284 18.6912 174.936 18.1572C174.589 17.6232 174.417 16.9706 174.417 16.1992C174.417 15.2588 174.675 14.44 175.189 13.7369C175.702 13.0338 176.423 12.488 177.348 12.0964C178.274 11.7048 179.348 11.512 180.576 11.512C181.804 11.512 182.881 11.7048 183.839 12.0905C184.798 12.4761 185.572 13.022 186.162 13.728C186.75 14.4341 187.1 15.2588 187.206 16.1992L184.507 16.6887C184.379 15.8373 183.964 15.1639 183.261 14.6625C182.558 14.1641 181.665 13.8971 180.576 13.8704C179.538 13.8408 178.695 14.0277 178.046 14.4341C177.399 14.8405 177.075 15.3834 177.075 16.0657C177.075 16.4603 177.197 16.7955 177.437 17.0685C177.681 17.3414 178.129 17.5995 178.787 17.8457C179.446 18.0919 180.401 18.3738 181.656 18.6912C183.071 19.0472 184.186 19.4358 185.002 19.8541C185.818 20.2754 186.4 20.7678 186.747 21.3374C187.094 21.907 187.266 22.6071 187.266 23.4378C187.266 24.9804 186.696 26.1938 185.56 27.0778C184.424 27.9619 182.854 28.4069 180.858 28.4069L180.864 28.4039Z" fill="#222222"/>
<path d="M189.936 27.974V6.61426H192.309V18.4066H192.606V27.974H189.936ZM201.357 27.974V19.9492C201.357 19.1987 201.289 18.4719 201.149 17.7688C201.01 17.0657 200.779 16.4338 200.452 15.8701C200.126 15.3065 199.684 14.8615 199.123 14.5351C198.565 14.2088 197.859 14.0457 197.011 14.0457C196.349 14.0457 195.747 14.1584 195.207 14.3868C194.667 14.6152 194.205 14.9534 193.822 15.4014C193.436 15.8523 193.137 16.419 192.926 17.1072C192.712 17.7955 192.606 18.6024 192.606 19.5309L190.87 18.997C190.87 17.4543 191.149 16.1253 191.71 15.0068C192.267 13.8884 193.053 13.0311 194.068 12.4348C195.083 11.8355 196.275 11.5359 197.652 11.5359C198.69 11.5359 199.574 11.6991 200.307 12.0254C201.04 12.3517 201.648 12.7878 202.131 13.3307C202.615 13.8736 202.998 14.4788 203.274 15.1403C203.549 15.8019 203.745 16.4813 203.858 17.1725C203.971 17.8637 204.03 18.5134 204.03 19.1156V27.971H201.36L201.357 27.974Z" fill="#222222"/>
<path d="M34.5731 37.5413C33.9026 37.5413 33.2737 37.2803 32.799 36.8056L22.493 26.4995L13.8393 35.1532C12.6379 36.3547 11.1397 37.1408 9.51104 37.4226C9.06011 37.4998 8.60028 37.5413 8.14046 37.5413C7.06357 37.5413 6.00745 37.3307 5.00177 36.9124C3.56295 36.3161 2.33477 35.3401 1.45368 34.0852C0.501397 32.7354 -0.00292969 31.1215 -0.00292969 29.4217L-0.00292969 8.54255C3.69381e-05 4.08371 3.62525 0.458496 8.08409 0.458496L28.9632 0.458496C30.6631 0.458496 32.2769 0.962822 33.6267 1.91511C34.8787 2.79916 35.8576 4.02438 36.4539 5.46319C37.0502 6.90201 37.2282 8.46245 36.9642 9.97246C36.6824 11.6011 35.8962 13.0963 34.6947 14.3008L26.0411 22.9544L36.3471 33.2605C37.3261 34.2395 37.3261 35.8296 36.3471 36.8086C35.8725 37.2832 35.2435 37.5443 34.5731 37.5443V37.5413ZM8.08409 5.47506C6.39312 5.47506 5.0166 6.85157 5.0166 8.54255L5.0166 29.4217C5.0166 30.7151 5.72859 31.7831 6.92414 32.2785C7.32464 32.4447 7.737 32.5307 8.14639 32.5307C8.94738 32.5307 9.692 32.2133 10.2942 31.611L31.1496 10.7527C32.0633 9.83897 32.3155 8.57815 31.8201 7.38557C31.3246 6.19002 30.2567 5.47803 28.9632 5.47803L8.08409 5.47803V5.47506Z" fill="#1800E7"/>
</g>
<defs>
<clipPath id="clip0_803_2022">
<rect width="204.027" height="37.0828" fill="white" transform="translate(0 0.458496)"/>
</clipPath>
</defs>
</svg>
