<svg width="607" height="135" viewBox="0 0 607 105" fill="none" xmlns="http://www.w3.org/2000/svg">
    <path d="M1.94439 59.4238H0V104.68H1.94439V59.4238Z" fill="#BF9F8A"/>
    <path d="M8.56499 49.5195H6.62061V104.68H8.56499V49.5195Z" fill="#BF9F8A"/>
    <path d="M13.2413 73.4689H11.6772V104.681H12.8557H15.1857V39.6162H13.2413V73.4689Z" fill="#BF9F8A"/>
    <path d="M19.8614 61.497H18.1045V104.681H19.4757H21.8058V29.7119H19.8614V61.497Z" fill="#BF9F8A"/>
    <path d="M26.4821 49.4019H24.5967V104.68H26.0965H28.4265V49.4019V19.8076H26.4821V49.4019Z" fill="#BF9F8A"/>
    <path d="M33.1026 37.6024H31.1636L31.1904 92.9344H32.9098V104.681H35.047V39.1558V9.9043H33.1026V37.6024Z" fill="#BF9F8A"/>
    <path d="M41.4748 0H39.5304V37.5432H38.1592V57.7852H39.5304V77.8236H38.1592V92.9341H39.5304V104.681H41.4748V92.9341H42.8461V77.8236H41.4748V57.7852H42.8461V37.5432H41.4748V0Z" fill="#BF9F8A"/>
    <path d="M47.9024 9.9043H45.958V92.9344V104.681H48.0952V92.9344H49.9593V37.5435H47.9024V9.9043Z" fill="#BF9F8A"/>
    <path d="M54.523 19.8076H52.5786V49.4019V104.68H54.9086H56.5799V49.4019H54.523V19.8076Z" fill="#BF9F8A"/>
    <path d="M61.1436 29.7119H59.1992V104.681H61.5239H63.0291V61.497H61.1436V29.7119Z" fill="#BF9F8A"/>
    <path d="M67.7642 39.6162H65.8145V104.681H68.1445H69.3283V73.4689H67.7642V39.6162Z" fill="#BF9F8A"/>
    <path d="M74.3794 49.5195H72.4351V104.68H74.3794V49.5195Z" fill="#BF9F8A"/>
    <path d="M81.0001 59.4238H79.0557V104.68H81.0001V59.4238Z" fill="#BF9F8A"/>
    <path d="M115.33 40.9199L101 69.9999H105.53L109.85 61.1899H127.67L131.99 69.9999H136.56L122.23 40.9199H115.33ZM111.67 57.5299L118.77 43.1599L125.83 57.5299H111.67Z" fill="white"/>
    <path d="M142.37 44.5699H168.71L141.75 63.9299V69.9999H172.03V66.3399L145.32 66.3799L172.15 47.1099V40.9199H142.37V44.5699Z" fill="white"/>
    <path d="M191.68 40.9199L177.35 69.9999H181.88L186.2 61.1899H204.02L208.34 69.9999H212.91L198.58 40.9199H191.68ZM188.02 57.5299L195.12 43.1599L202.18 57.5299H188.02Z" fill="white"/>
    <path d="M247.16 55.96C248.2 54.6 248.76 52.7599 248.84 50.4299C248.84 48.8499 248.6 47.4699 248.11 46.2799C247.63 45.0899 246.95 44.0999 246.08 43.3099C245.21 42.5199 244.15 41.93 242.9 41.52C241.65 41.12 240.27 40.9199 238.75 40.9199H219.35V69.9999H223.42V59.3699H238.5L244.52 69.96H249.3L242.86 58.83C244.69 58.27 246.12 57.31 247.16 55.96ZM237.37 55.71H223.41V44.5699H237.83C240.07 44.5699 241.75 45.0599 242.86 46.0399C243.97 47.0199 244.52 48.3999 244.52 50.1699C244.52 51.9699 243.93 53.3399 242.75 54.2799C241.58 55.2399 239.78 55.71 237.37 55.71Z" fill="white"/>
    <path d="M264.19 44.9698C265.12 44.5698 266.23 44.2699 267.51 44.0799C268.8 43.8899 270.23 43.7899 271.81 43.7899C273.2 43.7899 274.47 43.8999 275.63 44.1199C276.79 44.3399 277.81 44.7199 278.68 45.2399C279.55 45.7699 280.25 46.4698 280.78 47.3398C281.31 48.2098 281.62 49.2999 281.74 50.5999H286.14C286.03 49.3799 285.76 48.1499 285.33 46.8999C284.9 45.6499 284.17 44.5299 283.13 43.5399C282.09 42.5399 280.68 41.7298 278.89 41.0898C277.1 40.4498 274.78 40.1299 271.93 40.1299C269.27 40.1299 267 40.3699 265.12 40.8599C263.24 41.3399 261.69 41.9999 260.49 42.8099C259.29 43.6199 258.41 44.5799 257.85 45.6599C257.3 46.7399 257.02 47.8799 257.02 49.0699C257.02 50.6799 257.3 51.9799 257.85 52.9799C258.4 53.9799 259.26 54.7699 260.43 55.3499C261.6 55.9299 263.07 56.3499 264.85 56.5999C266.64 56.8499 268.75 57.0199 271.18 57.0999C274.86 57.3199 277.58 57.8099 279.32 58.5499C281.06 59.2999 281.92 60.5399 281.9 62.2899C281.87 64.0299 280.88 65.2998 278.93 66.0898C276.98 66.8798 274.31 67.2699 270.93 67.2699C267.66 67.2699 265.16 66.6499 263.43 65.4199C261.7 64.1899 260.75 62.4499 260.58 60.2099H256.18C256.29 61.4299 256.57 62.6699 257.03 63.9299C257.49 65.1899 258.25 66.3399 259.32 67.3799C260.38 68.4199 261.84 69.2699 263.68 69.9299C265.52 70.5899 267.9 70.9299 270.81 70.9299C273.72 70.9299 276.15 70.7099 278.1 70.2699C280.05 69.8299 281.62 69.2099 282.81 68.4199C284 67.6299 284.85 66.6899 285.36 65.5999C285.87 64.5099 286.13 63.3099 286.13 62.0099C286.13 60.4599 285.86 59.1699 285.32 58.1499C284.78 57.1299 283.93 56.2899 282.77 55.6599C281.61 55.0199 280.12 54.5499 278.32 54.2299C276.52 53.9099 274.35 53.6799 271.8 53.5399C269.97 53.4299 268.39 53.2799 267.04 53.0999C265.7 52.9199 264.6 52.6599 263.74 52.3099C262.88 51.9599 262.25 51.5099 261.85 50.9399C261.45 50.3699 261.25 49.6599 261.25 48.7999C261.25 47.9099 261.51 47.1599 262.02 46.5399C262.54 45.8799 263.26 45.3698 264.19 44.9698Z" fill="white"/>
    <path d="M343.49 43.3099C342.62 42.5199 341.56 41.93 340.31 41.52C339.06 41.12 337.68 40.9199 336.16 40.9199H316.88V69.9999H320.95V59.3699H336.16C337.66 59.3699 339.01 59.19 340.23 58.83C341.45 58.47 342.49 57.93 343.37 57.21C344.24 56.49 344.93 55.5599 345.43 54.4299C345.93 53.2999 346.2 51.9699 346.26 50.4399C346.26 48.8599 346.02 47.4799 345.53 46.2899C345.04 45.0899 344.36 44.0999 343.49 43.3099ZM340.31 54.2899C339.23 55.2299 337.79 55.7 335.99 55.7H320.95V44.5699H335.99C337.79 44.5699 339.23 45.0599 340.31 46.0399C341.39 47.0199 341.93 48.3999 341.93 50.1699C341.93 51.9799 341.39 53.3499 340.31 54.2899Z" fill="white"/>
    <path d="M381.33 55.96C382.37 54.6 382.93 52.7599 383.01 50.4299C383.01 48.8499 382.77 47.4699 382.28 46.2799C381.79 45.0899 381.12 44.0999 380.24 43.3099C379.37 42.5199 378.31 41.93 377.06 41.52C375.81 41.12 374.43 40.9199 372.91 40.9199H353.51V69.9999H357.58V59.3699H372.66L378.68 69.96H383.46L377.02 58.83C378.86 58.27 380.3 57.31 381.33 55.96ZM371.55 55.71H357.59V44.5699H372.01C374.25 44.5699 375.93 45.0599 377.04 46.0399C378.15 47.0199 378.7 48.3999 378.7 50.1699C378.7 51.9699 378.11 53.3399 376.93 54.2799C375.75 55.2399 373.96 55.71 371.55 55.71Z" fill="white"/>
    <path d="M418.93 43.74C417.45 42.49 415.69 41.56 413.65 40.94C411.61 40.32 409.35 40 406.86 40C404.37 40 402.1 40.3 400.07 40.89C398.03 41.49 396.28 42.4 394.79 43.63C393.31 44.86 392.15 46.43 391.3 48.34C390.46 50.25 389.99 52.52 389.91 55.15V55.9C389.99 58.48 390.46 60.71 391.3 62.59C392.15 64.47 393.31 66.03 394.79 67.26C396.27 68.49 398.03 69.41 400.07 70C402.11 70.59 404.37 70.89 406.86 70.89C409.35 70.89 411.62 70.59 413.65 70C415.69 69.4 417.44 68.5 418.93 67.28C420.41 66.06 421.57 64.5 422.42 62.61C423.26 60.71 423.73 58.48 423.81 55.9V55.15C423.73 52.57 423.26 50.34 422.42 48.44C421.57 46.56 420.41 44.99 418.93 43.74ZM418.6 60.63C418 62.08 417.16 63.3 416.07 64.29C414.98 65.27 413.65 66.01 412.08 66.51C410.52 67.01 408.78 67.26 406.87 67.26C404.96 67.26 403.22 67 401.66 66.49C400.09 65.98 398.77 65.23 397.67 64.25C396.58 63.27 395.73 62.05 395.14 60.59C394.54 59.14 394.25 57.45 394.25 55.54C394.25 53.55 394.55 51.81 395.14 50.33C395.74 48.85 396.58 47.62 397.67 46.63C398.76 45.65 400.09 44.91 401.66 44.41C403.22 43.91 404.96 43.66 406.87 43.66C408.78 43.66 410.52 43.92 412.08 44.45C413.65 44.98 414.97 45.74 416.07 46.76C417.16 47.77 418.01 49.01 418.6 50.48C419.2 51.95 419.49 53.64 419.49 55.55C419.49 57.48 419.19 59.18 418.6 60.63Z" fill="white"/>
    <path d="M457.69 43.3099C456.82 42.5199 455.76 41.93 454.51 41.52C453.26 41.12 451.88 40.9199 450.36 40.9199H431.08V69.9999H435.15V59.3699H450.36C451.86 59.3699 453.21 59.19 454.43 58.83C455.65 58.47 456.69 57.93 457.57 57.21C458.44 56.49 459.13 55.5599 459.63 54.4299C460.13 53.2999 460.4 51.9699 460.46 50.4399C460.46 48.8599 460.22 47.4799 459.73 46.2899C459.24 45.0899 458.56 44.0999 457.69 43.3099ZM454.51 54.2899C453.43 55.2299 451.99 55.7 450.19 55.7H435.15V44.5699H450.19C451.99 44.5699 453.43 45.0599 454.51 46.0399C455.59 47.0199 456.13 48.3999 456.13 50.1699C456.13 51.9799 455.59 53.3499 454.51 54.2899Z" fill="white"/>
    <path d="M471.79 56.08H489.9V52.4199H471.79V44.5699H494.1V40.9199H467.72V69.9999H495.47V66.3399H471.79V56.08Z" fill="white"/>
    <path d="M530.97 55.96C532.01 54.6 532.57 52.7599 532.65 50.4299C532.65 48.8499 532.41 47.4699 531.92 46.2799C531.44 45.0899 530.76 44.0999 529.89 43.3099C529.02 42.5199 527.96 41.93 526.71 41.52C525.46 41.12 524.08 40.9199 522.56 40.9199H503.16V69.9999H507.23V59.3699H522.31L528.33 69.96H533.11L526.67 58.83C528.49 58.27 529.93 57.31 530.97 55.96ZM521.18 55.71H507.22V44.5699H521.64C523.88 44.5699 525.56 45.0599 526.67 46.0399C527.78 47.0199 528.33 48.3999 528.33 50.1699C528.33 51.9699 527.74 53.3399 526.56 54.2799C525.38 55.2399 523.59 55.71 521.18 55.71Z" fill="white"/>
    <path d="M539.13 44.5699H552.05V69.9999H556.12V44.5699H569.08V40.9199H539.13V44.5699Z" fill="white"/>
    <path d="M606.63 40.9199H601.73L590.43 57.45L579.22 40.9199H574.27L588.27 61.4L588.26 69.9999H592.35L592.34 61.5599L606.63 40.9199Z" fill="white"/>
    <path d="M105.6 92.2207L101 102.481H102.6L103.61 100.131H109.15L110.16 102.481H111.85L107.25 92.2207H105.6ZM104.19 98.7907L106.39 93.7307L108.57 98.7907H104.19Z" fill="white"/>
    <path d="M116.25 102.491H117.71V93.6307H123.14V92.2207H116.25V102.491Z" fill="white"/>
    <path d="M127.61 102.491H134.5V101.111H129.08V98.0407H134.06V96.6607H129.08V93.6007H134.5V92.2207H127.61V102.491Z" fill="white"/>
    <path d="M146.97 96.6508H141.1V92.2207H139.64V102.491H141.1V98.0607H146.97V102.491H148.43V92.2207H146.97V96.6508Z" fill="white"/>
    <path d="M152.91 93.6307H156.57V102.491H158.04V93.6307H161.7V92.2207H152.91V93.6307Z" fill="white"/>
    <path d="M170.05 93.4803C171.59 93.4803 172.69 94.3303 173.28 95.5903H174.91C174.24 93.4603 172.33 92.0703 170.06 92.0703C167.08 92.0703 164.8 94.3703 164.8 97.3503C164.8 100.33 167.09 102.63 170.06 102.63C172.33 102.63 174.24 101.24 174.91 99.1103H173.28C172.69 100.37 171.59 101.22 170.05 101.22C167.94 101.22 166.33 99.5303 166.33 97.3503C166.32 95.1703 167.94 93.4803 170.05 93.4803Z" fill="white"/>
    <path d="M178.13 93.6307H181.79V102.491H183.26V93.6307H186.93V92.2207H178.13V93.6307Z" fill="white"/>
    <path d="M197.87 97.2507C198.78 96.7507 199.17 95.9507 199.17 95.0107C199.17 93.4407 198.03 92.2207 195.99 92.2207H191.4V102.481H196C198.13 102.481 199.31 101.221 199.31 99.5807C199.32 98.5907 198.85 97.7607 197.87 97.2507ZM192.86 93.5707H195.91C197.08 93.5707 197.68 94.0807 197.68 95.0807C197.68 96.1207 197.08 96.7108 195.91 96.7108H192.86V93.5707ZM195.93 101.141H192.87V97.9907H195.93C197.15 97.9907 197.78 98.5207 197.78 99.5307C197.78 100.561 197.15 101.141 195.93 101.141Z" fill="white"/>
    <path d="M208.78 92.0703C205.76 92.0703 203.43 94.3703 203.43 97.3503C203.43 100.33 205.76 102.63 208.78 102.63C211.8 102.63 214.13 100.33 214.13 97.3503C214.13 94.3803 211.8 92.0703 208.78 92.0703ZM208.78 101.22C206.62 101.22 204.97 99.5303 204.97 97.3503C204.97 95.1603 206.63 93.4803 208.78 93.4803C210.94 93.4803 212.59 95.1703 212.59 97.3503C212.59 99.5403 210.93 101.22 208.78 101.22Z" fill="white"/>
    <path d="M233.41 96.6508H227.54V92.2207H226.08V102.491H227.54V98.0607H233.41V102.491H234.88V92.2207H233.41V96.6508Z" fill="white"/>
    <path d="M240.45 102.491H247.34V101.111H241.91V98.0407H246.9V96.6607H241.91V93.6007H247.34V92.2207H240.45V102.491Z" fill="white"/>
    <path d="M260.95 92.2207H253.15V95.9207C253.15 99.2507 252.8 100.421 252.4 101.081H251.3V104.691H252.71V102.491H260.72V104.691H262.13V101.081H260.96V92.2207H260.95ZM259.48 101.081H253.95C254.3 100.141 254.6 98.6007 254.6 95.8607V93.6307H259.48V101.081Z" fill="white"/>
    <path d="M273.21 97.2507C274.12 96.7507 274.51 95.9507 274.51 95.0107C274.51 93.4407 273.37 92.2207 271.33 92.2207H266.74V102.481H271.34C273.47 102.481 274.65 101.221 274.65 99.5807C274.66 98.5907 274.19 97.7607 273.21 97.2507ZM268.21 93.5707H271.26C272.43 93.5707 273.03 94.0807 273.03 95.0807C273.03 96.1207 272.43 96.7108 271.26 96.7108H268.21V93.5707ZM271.27 101.141H268.21V97.9907H271.27C272.49 97.9907 273.12 98.5207 273.12 99.5307C273.12 100.561 272.49 101.141 271.27 101.141Z" fill="white"/>
    <path d="M281.04 100.481V92.2207H279.57V102.491H281.18L287.2 94.0107V102.491H288.66V92.2207H286.86L281.04 100.481Z" fill="white"/>
    <path d="M308.52 92.2207H306.64L301.63 97.0907V92.2207H300.16V97.0707L295.2 92.2207H293.27L297.64 96.4307L293.13 102.491H294.89L298.65 97.4107L300.16 98.8607V102.491H301.63V98.8607L303.09 97.4608L306.89 102.491H308.65L304.15 96.4407L308.52 92.2207Z" fill="white"/>
    <path d="M314.59 100.481V92.2207H313.12V102.491H314.73L320.75 94.0107V102.491H322.21V92.2207H320.41L314.59 100.481Z" fill="white"/>
    <path d="M333.9 99.5707L329.85 92.2207H327.79V102.491H329.25V94.1107L333.86 102.491L338.49 94.0507V102.491H339.96V92.2207H337.95L333.9 99.5707Z" fill="white"/>
    <path d="M350.22 92.0703C347.2 92.0703 344.87 94.3703 344.87 97.3503C344.87 100.33 347.2 102.63 350.22 102.63C353.24 102.63 355.57 100.33 355.57 97.3503C355.57 94.3803 353.24 92.0703 350.22 92.0703ZM350.22 101.22C348.06 101.22 346.41 99.5303 346.41 97.3503C346.41 95.1603 348.07 93.4803 350.22 93.4803C352.38 93.4803 354.03 95.1703 354.03 97.3503C354.03 99.5403 352.38 101.22 350.22 101.22Z" fill="white"/>
    <path d="M365.09 93.4803C366.63 93.4803 367.73 94.3303 368.32 95.5903H369.95C369.28 93.4603 367.37 92.0703 365.1 92.0703C362.12 92.0703 359.84 94.3703 359.84 97.3503C359.84 100.33 362.13 102.63 365.1 102.63C367.37 102.63 369.28 101.24 369.95 99.1103H368.32C367.73 100.37 366.63 101.22 365.09 101.22C362.98 101.22 361.37 99.5303 361.37 97.3503C361.36 95.1703 362.98 93.4803 365.09 93.4803Z" fill="white"/>
    <path d="M373.17 93.6307H376.83V102.491H378.3V93.6307H381.97V92.2207H373.17V93.6307Z" fill="white"/>
    <path d="M393.73 92.2207L387.91 100.481V92.2207H386.44V102.491H388.05L394.06 94.0107V102.491H395.53V92.2207H393.73Z" fill="white"/>
</svg>
