<svg width="204px" height="38px" viewBox="0 0 164 38" version="1.1" xmlns="http://www.w3.org/2000/svg" xmlns:xlink="http://www.w3.org/1999/xlink">
    <g id="*-/-Logo-38px" stroke="none" stroke-width="1" fill="none" fill-rule="evenodd">
        <path d="M16.4397888,0.0382678751 L16.4397888,9.14602216 C14.1352801,9.69796266 12.0385096,11.1344232 10.6488478,13.1152038 L10.4855145,13.3554884 L8.31351506,13.3554884 C9.66165263,10.7915408 11.8336521,8.83987915 14.4550307,7.76837865 C14.5486513,7.76837865 14.5902605,7.68865391 14.6015297,7.61778748 L14.6048237,7.57703927 L14.6048237,2.64048338 C14.6048237,2.56394763 14.5673755,2.48741188 14.5299272,2.44914401 C14.4924789,2.41087613 14.4175824,2.41087613 14.3426859,2.41087613 C7.45220494,4.32426989 2.47158556,10.5236657 1.9847581,17.7945619 C1.9847581,17.8328298 2.02220637,17.9093656 2.05965463,17.9476334 C2.08774083,17.9763343 2.11582703,18.0050352 2.15971172,18.0175919 L2.2094477,18.0241692 L8.95013558,18.0241692 C8.92204938,18.2537764 8.91502783,18.5049094 8.91327244,18.7452795 L8.91268731,18.9808661 C8.91268731,19.2104733 8.91268731,19.4616062 8.9284858,19.7019763 L8.95013558,19.9375629 L2.24689596,19.9375629 C2.2094477,19.9375629 2.13455116,19.9758308 2.0971029,20.0140987 C2.02220637,20.0523666 2.02220637,20.0906344 2.02220637,20.1671702 C2.50903382,27.4380665 7.4896532,33.6374622 14.3801342,35.550856 C14.4550307,35.550856 14.5299272,35.550856 14.5673755,35.5125881 C14.5954617,35.4838872 14.6235479,35.4336606 14.6358356,35.3780526 L14.642272,35.3212487 L14.642272,30.3846928 C14.642272,30.3081571 14.5673755,30.2316213 14.4924789,30.1933535 C11.9321271,29.1615382 9.82320928,27.3135515 8.50012093,24.8885935 L8.35096332,24.6062437 L10.5229628,24.6062437 C11.8531252,26.6267875 13.9080463,28.1183162 16.157617,28.8099741 L16.4397888,28.8922457 L16.4397888,38 C7.04027401,36.8519637 0,28.7391742 0,19.0191339 C0,9.44259819 6.88805637,1.36368188 16.1341251,0.0781789796 L16.4397888,0.0382678751 Z M20.971029,0 C28.2348403,0.904299326 34.227981,5.96373812 36.4839538,13.0231232 L36.5869559,13.3554884 L34.6021978,13.3554884 C32.804681,7.95971803 28.4981304,3.86505539 23.1430284,2.37260826 C23.0681319,2.37260826 22.9932353,2.37260826 22.9557871,2.41087613 C22.9277009,2.43957704 22.8996147,2.48980363 22.887327,2.54541163 L22.8808905,2.60221551 L22.8808905,7.5387714 C22.8808905,7.61530715 22.9557871,7.6918429 23.0306836,7.73011078 C27.2248894,9.41389728 30.0709576,13.2406848 30.4828885,17.7945619 C30.4828885,17.892965 30.5654276,17.963253 30.6597579,17.981327 L30.7075781,17.9859013 L37.448266,17.9859013 C37.4857143,18.2920443 37.4857143,18.6364552 37.4857143,18.9425982 C37.4857143,28.5191339 30.5976579,36.5980502 21.3515892,37.8835531 L21.0459255,37.9234642 L21.0459255,28.81571 C23.3504342,28.2637695 25.4472047,26.8273089 26.8368665,24.8465283 L27.0001998,24.6062437 L29.1721992,24.6062437 C27.8240617,27.1701913 25.6520622,29.121853 23.0306836,30.1933535 C22.9370629,30.1933535 22.8954538,30.2730782 22.8841846,30.3439446 L22.8808905,30.3846928 L22.8808905,35.3212487 C22.8808905,35.3977845 22.9183388,35.4743202 22.9557871,35.5125881 C22.9932353,35.550856 23.0681319,35.550856 23.1430284,35.550856 C30.0335093,33.6374622 35.0141287,27.4380665 35.5009562,20.1671702 C35.5009562,20.1289023 35.4635079,20.0523666 35.4260597,20.0140987 C35.3979735,19.9853978 35.3698873,19.9566969 35.3260026,19.9441402 L35.2762666,19.9375629 L28.573027,19.9375629 C28.6104752,19.6314199 28.6104752,19.2870091 28.6104752,18.9808661 C28.6104752,14.3594983 25.5059707,10.328354 21.210859,9.16918345 L20.971029,9.10775428 L20.971029,0 Z M18.7615813,13.5085599 C21.7199943,13.5085599 24.1166833,15.9577039 24.1166833,18.9808661 C24.1166833,22.0040282 21.7199943,24.4531722 18.7615813,24.4531722 C15.8031683,24.4531722 13.4064792,22.0040282 13.4064792,18.9808661 C13.4064792,15.9577039 15.8031683,13.5085599 18.7615813,13.5085599 Z M18.7615813,15.4602216 C16.8517197,15.4602216 15.3163408,17.0292044 15.3163408,18.9808661 C15.3163408,20.9325277 16.8517197,22.5015106 18.7615813,22.5015106 C20.6714428,22.5015106 22.2068217,20.9325277 22.2068217,18.9808661 C22.2068217,17.0292044 20.6714428,15.4602216 18.7615813,15.4602216 Z" id="Logo" fill="#E28813"></path>
        <g id="SpaceView" transform="translate(47.7823, 9.8433)" fill="#E28813" fill-rule="nonzero">
            <path d="M8.56748568,12.3156738 C8.56748568,11.7312012 8.36328646,11.2615356 7.95488802,10.9066772 C7.54648959,10.5518188 6.83093434,10.2178345 5.80822229,9.90472412 C4.02362407,9.38287354 2.67487965,8.76361084 1.76198903,8.04693604 C0.849098404,7.33026123 0.392653092,6.34918213 0.392653092,5.10369873 C0.392653092,3.85821533 0.916020837,2.84060669 1.96275633,2.0508728 C3.00949182,1.26113892 4.34622452,0.866271973 5.97295443,0.866271973 C7.62027586,0.866271973 8.96215644,1.30984497 9.99859617,2.19699097 C11.0350359,3.08413696 11.5360962,4.17828369 11.501777,5.47943115 L11.4811855,5.54205322 L8.56748568,5.54205322 C8.56748568,4.83929443 8.33583111,4.27047729 7.87252195,3.83560181 C7.4092128,3.40072632 6.75886403,3.18328857 5.92147564,3.18328857 C5.11840644,3.18328857 4.49722898,3.36419678 4.05794327,3.72601318 C3.61865756,4.08782959 3.3990147,4.55053711 3.3990147,5.11413574 C3.3990147,5.62902832 3.63410119,6.05172729 4.10427419,6.38223267 C4.57444718,6.71273804 5.38609617,7.06237793 6.53922117,7.43115234 C8.19340644,7.89733887 9.44605711,8.51312256 10.2971732,9.27850342 C11.1482893,10.0438843 11.5738473,11.0493164 11.5738473,12.2947998 C11.5738473,13.5959473 11.0676391,14.6222534 10.0552228,15.3737183 C9.04280655,16.1251831 7.70607385,16.5009155 6.04502474,16.5009155 C4.41143099,16.5009155 2.98718434,16.0747375 1.77228479,15.2223816 C0.557385235,14.3700256 -0.0329049438,13.1749878 0.0014142526,11.6372681 L0.0220057705,11.574646 L2.94600131,11.574646 C2.94600131,12.479187 3.21883892,13.1419373 3.76451414,13.5628967 C4.31018936,13.9838562 5.07035957,14.1943359 6.04502474,14.1943359 C6.86182162,14.1943359 7.48643099,14.0238647 7.91885287,13.6829224 C8.35127474,13.34198 8.56748568,12.8862305 8.56748568,12.3156738 Z" id="Path"></path>
            <path d="M23.8089154,10.9484253 C23.8089154,12.6183472 23.4279723,13.9612427 22.6660861,14.9771118 C21.9042,15.992981 20.8403049,16.5009155 19.4744009,16.5009155 C18.8909745,16.5009155 18.3727547,16.3913269 17.9197413,16.1721497 C17.4667279,15.9529724 17.0789209,15.6311646 16.7563205,15.2067261 L16.7563205,20.6235352 L13.7602547,20.6235352 L13.7602547,4.9888916 L16.4680393,4.9888916 L16.6430672,6.3248291 C16.9725314,5.83081055 17.3689182,5.44985962 17.8322273,5.18197632 C18.2955365,4.91409302 18.8360638,4.78015137 19.4538093,4.78015137 C20.833441,4.78015137 21.9042,5.32635498 22.6660861,6.41876221 C23.4279723,7.51116943 23.8089154,8.94799805 23.8089154,10.729248 L23.8089154,10.9484253 Z M20.8025538,10.729248 C20.8025538,9.66467285 20.6275259,8.80187988 20.2774701,8.14086914 C19.9274143,7.4798584 19.3920348,7.14935303 18.6713317,7.14935303 C18.2183183,7.14935303 17.8322273,7.24328613 17.5130588,7.43115234 C17.1938903,7.61901855 16.9416442,7.88690186 16.7563205,8.23480225 L16.7563205,13.1819458 C16.9416442,13.5020142 17.1938903,13.7455444 17.5130588,13.9125366 C17.8322273,14.0795288 18.2251821,14.1630249 18.6919232,14.1630249 C19.4194901,14.1630249 19.9531536,13.8742676 20.2929137,13.2967529 C20.6326737,12.7192383 20.8025538,11.9364624 20.8025538,10.9484253 L20.8025538,10.729248 Z" id="Shape"></path>
            <path d="M32.3581018,16.2817383 C32.2482803,16.024292 32.1539025,15.7529297 32.0749684,15.4676514 C31.9960342,15.182373 31.9394076,14.8901367 31.9050884,14.5909424 C31.5962156,15.140625 31.1895331,15.5963745 30.6850409,15.9581909 C30.1805487,16.3200073 29.5782468,16.5009155 28.8781352,16.5009155 C27.7112826,16.5009155 26.8121196,16.1965027 26.1806464,15.587677 C25.5491732,14.9788513 25.2334366,14.1491089 25.2334366,13.0984497 C25.2334366,11.9921265 25.6538467,11.134552 26.494667,10.5257263 C27.3354874,9.91690063 28.5623986,9.61248779 30.1754009,9.61248779 L31.8536096,9.61248779 L31.8536096,8.71490479 C31.8536096,8.17218018 31.7129009,7.7512207 31.4314834,7.45202637 C31.150066,7.15283203 30.7348038,7.00323486 30.1856966,7.00323486 C29.698364,7.00323486 29.3225688,7.1232605 29.058311,7.36331177 C28.7940532,7.60336304 28.6619243,7.93560791 28.6619243,8.36004639 L25.7585203,8.34960938 L25.7482245,8.2869873 C25.7001776,7.33374023 26.1085761,6.51095581 26.9734198,5.81863403 C27.8382636,5.12631226 28.974229,4.78015137 30.381316,4.78015137 C31.7129009,4.78015137 32.7939555,5.12283325 33.6244801,5.80819702 C34.4550047,6.49356079 34.8702669,7.46942139 34.8702669,8.73577881 L34.8702669,13.401123 C34.8702669,13.9299316 34.909734,14.4274292 34.9886682,14.8936157 C35.0676023,15.3598022 35.1928674,15.8225098 35.3644634,16.2817383 L32.3581018,16.2817383 Z M29.6091341,14.246521 C30.1376497,14.246521 30.6078227,14.1143188 31.0196531,13.8499146 C31.4314834,13.5855103 31.7094689,13.2793579 31.8536096,12.9314575 L31.8536096,11.3345947 L30.1754009,11.3345947 C29.5370638,11.3345947 29.0531631,11.4963684 28.7236989,11.8199158 C28.3942346,12.1434631 28.2295024,12.5348511 28.2295024,12.9940796 C28.2295024,13.369812 28.3530515,13.6724854 28.6001497,13.9020996 C28.847248,14.1317139 29.1835761,14.246521 29.6091341,14.246521 Z" id="Shape"></path>
            <path d="M41.9780471,14.1630249 C42.5134265,14.1630249 42.9424165,14.0047302 43.2650169,13.6881409 C43.5876174,13.3715515 43.7489176,12.9488525 43.7489176,12.4200439 L46.4772937,12.4200439 L46.508181,12.482666 C46.5356364,13.6237793 46.1117943,14.5787659 45.2366548,15.3476257 C44.3615153,16.1164856 43.2753127,16.5009155 41.9780471,16.5009155 C40.316998,16.5009155 39.0368919,15.9686279 38.137729,14.9040527 C37.238566,13.8394775 36.7889846,12.472229 36.7889846,10.8023071 L36.7889846,10.4891968 C36.7889846,8.82623291 37.2368501,7.45898438 38.1325811,6.38745117 C39.0283121,5.31591797 40.3067022,4.78015137 41.9677513,4.78015137 C43.3405192,4.78015137 44.4473132,5.17675781 45.2881336,5.9699707 C46.1289539,6.76318359 46.5356364,7.80688477 46.508181,9.10107422 L46.4875895,9.16369629 L43.7489176,9.16369629 C43.7489176,8.57922363 43.5910493,8.09390259 43.2753127,7.70773315 C42.9595761,7.32156372 42.5237223,7.128479 41.9677513,7.128479 C41.1715459,7.128479 40.6104271,7.44158936 40.2843947,8.06781006 C39.9583624,8.69403076 39.7953462,9.50115967 39.7953462,10.4891968 L39.7953462,10.8023071 C39.7953462,11.8112183 39.9583624,12.6235657 40.2843947,13.2393494 C40.6104271,13.8551331 41.1749779,14.1630249 41.9780471,14.1630249 Z" id="Path"></path>
            <path d="M53.3070884,16.5009155 C51.70095,16.5009155 50.417412,15.9790649 49.4564745,14.9353638 C48.495537,13.8916626 48.0150683,12.5661621 48.0150683,10.9588623 L48.0150683,10.5413818 C48.0150683,8.86450195 48.4697976,7.4833374 49.3792563,6.39788818 C50.288715,5.31243896 51.5087625,4.77319336 53.0393986,4.78008489 C54.5425794,4.78008489 55.7094321,5.23937988 56.5399567,6.15783691 C57.3704812,7.07629395 57.7857435,8.31829834 57.7857435,9.8838501 L57.7857435,11.543335 L51.1346832,11.543335 L51.1140917,11.605957 C51.1690024,12.3504639 51.4143847,12.9627686 51.8502385,13.4428711 C52.2860923,13.9229736 52.8780984,14.1630249 53.6262569,14.1630249 C54.2920493,14.1630249 54.8445884,14.0951843 55.2838741,13.9595032 C55.7231598,13.823822 56.2036285,13.6098633 56.7252803,13.317627 L57.5386453,15.1962891 C57.0856319,15.5720215 56.4919098,15.8833923 55.757479,16.1304016 C55.0230482,16.3774109 54.2062513,16.5009155 53.3070884,16.5009155 Z M53.0393986,7.128479 C52.4834276,7.128479 52.0441419,7.34417725 51.7215415,7.77557373 C51.398941,8.20697021 51.1998897,8.77404785 51.1243875,9.47680664 L51.1552747,9.5289917 L54.8411564,9.5289917 L54.8411564,9.25762939 C54.8411564,8.61053467 54.6918679,8.09390259 54.3932909,7.70773315 C54.0947139,7.32156372 53.6434165,7.128479 53.0393986,7.128479 Z" id="Shape"></path>
            <polygon id="Path" points="64.8420448 12.50354 65.1818049 13.7037964 65.2435794 13.7037964 65.5833395 12.50354 69.4545448 1.08544922 71.6475415 1.08544922 66.0775359 16.2817383 64.3375526 16.2817383 58.7675471 1.08544922 60.9708395 1.08544922"></polygon>
            <path d="M75.6974812,16.2817383 L73.6692167,16.2817383 L73.6692167,4.9888916 L75.6974812,4.9888916 L75.6974812,16.2817383 Z M75.6974812,2.09783936 L73.6692167,2.09783936 L73.6692167,0 L75.6974812,0 L75.6974812,2.09783936 Z" id="Shape"></path>
            <path d="M83.5980348,16.5009155 C82.0468071,16.5009155 80.813032,15.9773254 79.8967095,14.9301453 C78.9803869,13.8829651 78.5222256,12.5244141 78.5222256,10.8544922 L78.5222256,10.3952637 C78.5222256,8.78796387 78.9941146,7.45028687 79.9378925,6.38223267 C80.8816704,5.31417847 81.9987602,4.78015137 83.289162,4.78015137 C84.7923428,4.78015137 85.9283082,5.23937988 86.6970582,6.15783691 C87.4658082,7.07629395 87.8501832,8.30090332 87.8501832,9.83166504 L87.8501832,11.1154175 L80.6225605,11.1154175 L80.5916732,11.1676025 C80.6122647,12.2530518 80.8833864,13.1454163 81.4050381,13.844696 C81.9266899,14.5439758 82.6576888,14.8936157 83.5980348,14.8936157 C84.2844187,14.8936157 84.8867206,14.7944641 85.4049405,14.5961609 C85.9231603,14.3978577 86.3710259,14.1247559 86.748537,13.7768555 L87.5413105,15.112793 C87.1432078,15.5093994 86.6181241,15.8399048 85.9660593,16.1043091 C85.3139946,16.3687134 84.5246531,16.5009155 83.5980348,16.5009155 Z M83.289162,6.39788818 C82.6096419,6.39788818 82.0296475,6.68838501 81.5491788,7.26937866 C81.06871,7.85037231 80.7735649,8.57922363 80.6637435,9.45593262 L80.684335,9.50811768 L85.8219187,9.50811768 L85.8219187,9.23675537 C85.8219187,8.42962646 85.6091397,7.75469971 85.1835817,7.2119751 C84.7580236,6.66925049 84.1265504,6.39788818 83.289162,6.39788818 Z" id="Shape"></path>
            <polygon id="Path" points="93.135614 12.1695557 93.3724165 13.5368042 93.434191 13.5368042 93.7224723 12.1695557 95.9463562 4.9888916 97.5730861 4.9888916 99.8072658 12.1695557 100.126434 13.6933594 100.188209 13.6933594 100.486786 12.1695557 102.237065 4.9888916 104.255034 4.9888916 101.022165 16.2817383 99.3851397 16.2817383 97.2333261 9.40374756 96.7700169 7.4833374 96.7082424 7.49377441 96.2655247 9.40374756 94.1445984 16.2817383 92.5075727 16.2817383 89.2747044 4.9888916 91.2926732 4.9888916"></polygon>
        </g>
    </g>
</svg>